<svg width="33" height="33" viewBox="0 0 33 33" fill="none" xmlns="http://www.w3.org/2000/svg">
<g id="Community" clip-path="url(#clip0_314_177)">
<path id="Vector" d="M28.8999 12.55C28.6499 11.85 28.3999 11.15 28.0499 10.5C27.3499 11 26.5499 11.25 25.6999 11.25C22.4499 11.25 20.5499 7.55 22.4999 4.9C21.8499 4.55 21.1499 4.25 20.4499 4.05C19.7499 8.55 13.2499 8.55 12.5999 4.05C11.8999 4.3 11.1999 4.55 10.5499 4.9C13.2499 8.55 8.5999 13.15 4.9999 10.45C4.6499 11.1 4.3499 11.8 4.1499 12.5C8.6499 13.2 8.6499 19.7 4.1499 20.35C4.3999 21.05 4.6499 21.75 4.9999 22.4C5.6999 21.9 6.4999 21.65 7.3499 21.65C10.5999 21.65 12.4999 25.35 10.5499 28C11.1999 28.35 11.8999 28.65 12.5999 28.85C13.2999 24.35 19.7999 24.35 20.4499 28.85C21.1499 28.6 21.8499 28.35 22.4999 28C20.5999 25.4 22.4499 21.65 25.6999 21.65C26.5499 21.65 27.3499 21.9 28.0499 22.4C28.3999 21.75 28.6999 21.05 28.8999 20.35C24.3999 19.75 24.3999 13.25 28.8999 12.55ZM16.4999 24.5C12.0999 24.5 8.4999 20.9 8.4999 16.5C8.4999 12.1 12.0999 8.5 16.4999 8.5C20.8999 8.5 24.4999 12.1 24.4999 16.5C24.4999 20.9 20.8999 24.5 16.4999 24.5Z" fill="#8B0CFF"/>
<path id="Vector_2" d="M16.5 6.5C18.1569 6.5 19.5 5.15685 19.5 3.5C19.5 1.84315 18.1569 0.5 16.5 0.5C14.8431 0.5 13.5 1.84315 13.5 3.5C13.5 5.15685 14.8431 6.5 16.5 6.5Z" fill="#8B0CFF"/>
<path id="Vector_3" d="M16.5 32.5C18.1569 32.5 19.5 31.1569 19.5 29.5C19.5 27.8431 18.1569 26.5 16.5 26.5C14.8431 26.5 13.5 27.8431 13.5 29.5C13.5 31.1569 14.8431 32.5 16.5 32.5Z" fill="#8B0CFF"/>
<path id="Vector_4" d="M25.7002 10.3C27.357 10.3 28.7002 8.95686 28.7002 7.3C28.7002 5.64315 27.357 4.3 25.7002 4.3C24.0433 4.3 22.7002 5.64315 22.7002 7.3C22.7002 8.95686 24.0433 10.3 25.7002 10.3Z" fill="#8B0CFF"/>
<path id="Vector_5" d="M7.2998 28.7C8.95666 28.7 10.2998 27.3569 10.2998 25.7C10.2998 24.0431 8.95666 22.7 7.2998 22.7C5.64295 22.7 4.2998 24.0431 4.2998 25.7C4.2998 27.3569 5.64295 28.7 7.2998 28.7Z" fill="#8B0CFF"/>
<path id="Vector_6" d="M29.5 19.5C31.1569 19.5 32.5 18.1569 32.5 16.5C32.5 14.8431 31.1569 13.5 29.5 13.5C27.8431 13.5 26.5 14.8431 26.5 16.5C26.5 18.1569 27.8431 19.5 29.5 19.5Z" fill="#8B0CFF"/>
<path id="Vector_7" d="M3.5 19.5C5.15685 19.5 6.5 18.1569 6.5 16.5C6.5 14.8431 5.15685 13.5 3.5 13.5C1.84315 13.5 0.5 14.8431 0.5 16.5C0.5 18.1569 1.84315 19.5 3.5 19.5Z" fill="#8B0CFF"/>
<path id="Vector_8" d="M25.7002 28.7C27.357 28.7 28.7002 27.3569 28.7002 25.7C28.7002 24.0431 27.357 22.7 25.7002 22.7C24.0433 22.7 22.7002 24.0431 22.7002 25.7C22.7002 27.3569 24.0433 28.7 25.7002 28.7Z" fill="#8B0CFF"/>
<path id="Vector_9" d="M7.2998 10.3C8.95666 10.3 10.2998 8.95686 10.2998 7.3C10.2998 5.64315 8.95666 4.3 7.2998 4.3C5.64295 4.3 4.2998 5.64315 4.2998 7.3C4.2998 8.95686 5.64295 10.3 7.2998 10.3Z" fill="#8B0CFF"/>
</g>
<defs>
<clipPath id="clip0_314_177">
<rect width="33" height="33" fill="white"/>
</clipPath>
</defs>
</svg>
