<svg width="46" height="39" viewBox="0 0 46 39" fill="none" xmlns="http://www.w3.org/2000/svg">
<rect x="0.5" y="0.5" width="45" height="38" rx="4.5" stroke="#8B0CFF"/>
<path d="M33.0189 24.8201L29.8889 17.5001C29.3189 16.1601 28.4689 15.4001 27.4989 15.3501C26.5389 15.3001 25.6089 15.9701 24.8989 17.2501L22.9989 20.6601C22.5989 21.3801 22.0289 21.8101 21.4089 21.8601C20.7789 21.9201 20.1489 21.5901 19.6389 20.9401L19.4189 20.6601C18.7089 19.7701 17.8289 19.3401 16.9289 19.4301C16.0289 19.5201 15.2589 20.1401 14.7489 21.1501L13.0189 24.6001C12.3989 25.8501 12.4589 27.3001 13.1889 28.4801C13.9189 29.6601 15.1889 30.3701 16.5789 30.3701H29.3389C30.6789 30.3701 31.9289 29.7001 32.6689 28.5801C33.4289 27.4601 33.5489 26.0501 33.0189 24.8201ZM17.9699 16.3811C18.8663 16.3811 19.7261 16.025 20.3599 15.3911C20.9938 14.7572 21.3499 13.8975 21.3499 13.0011C21.3499 12.1047 20.9938 11.2449 20.3599 10.6111C19.7261 9.9772 18.8663 9.62109 17.9699 9.62109C17.0735 9.62109 16.2138 9.9772 15.5799 10.6111C14.946 11.2449 14.5899 12.1047 14.5899 13.0011C14.5899 13.8975 14.946 14.7572 15.5799 15.3911C16.2138 16.025 17.0735 16.3811 17.9699 16.3811Z" fill="#8B0CFF"/>
</svg>
