<svg width="50" height="50" viewBox="0 0 50 50" fill="none" xmlns="http://www.w3.org/2000/svg">
<path fill-rule="evenodd" clip-rule="evenodd" d="M0 2.37033C0 1.06125 1.06125 0 2.37033 0L21.333 0C22.6421 0 23.7033 1.06125 23.7033 2.37033V21.333C23.7033 22.6421 22.6421 23.7033 21.333 23.7033H2.37033C1.06125 23.7033 0 22.6421 0 21.333L0 2.37033ZM2.37033 26.0737C1.06125 26.0737 0 27.1349 0 28.444L0 47.4067C0 48.7158 1.06125 49.777 2.37033 49.777H21.333C22.6421 49.777 23.7033 48.7158 23.7033 47.4067L23.7033 28.444C23.7033 27.1349 22.6421 26.0737 21.333 26.0737H2.37033ZM28.444 0C27.1349 0 26.0737 1.06125 26.0737 2.37033V21.333C26.0737 22.6421 27.1349 23.7033 28.444 23.7033L47.4067 23.7033C48.7158 23.7033 49.777 22.6421 49.777 21.333V2.37033C49.777 1.06125 48.7158 0 47.4067 0L28.444 0ZM28.444 26.0737C27.1349 26.0737 26.0737 27.1349 26.0737 28.444L26.0737 47.4067C26.0737 48.7158 27.1349 49.777 28.444 49.777H47.4067C48.7158 49.777 49.777 48.7158 49.777 47.4067V28.444C49.777 27.1349 48.7158 26.0737 47.4067 26.0737L28.444 26.0737ZM5.92584 11.8517C5.92584 8.57893 8.57893 5.92584 11.8517 5.92584C15.1244 5.92584 17.7775 8.57893 17.7775 11.8517C17.7775 15.1244 15.1244 17.7775 11.8517 17.7775C8.57893 17.7775 5.92584 15.1244 5.92584 11.8517ZM11.8517 31.9995C8.57893 31.9995 5.92584 34.6526 5.92584 37.9253C5.92584 41.1981 8.57893 43.8512 11.8517 43.8512C15.1244 43.8512 17.7775 41.1981 17.7775 37.9253C17.7775 34.6526 15.1244 31.9995 11.8517 31.9995ZM37.9253 5.92584C34.6526 5.92584 31.9995 8.57893 31.9995 11.8517C31.9995 15.1244 34.6526 17.7775 37.9253 17.7775C41.1981 17.7775 43.8512 15.1244 43.8512 11.8517C43.8512 8.57893 41.1981 5.92584 37.9253 5.92584ZM37.9253 31.9995C34.6526 31.9995 31.9995 34.6526 31.9995 37.9253C31.9995 41.1981 34.6526 43.8512 37.9253 43.8512C41.1981 43.8512 43.8512 41.1981 43.8512 37.9253C43.8512 34.6526 41.1981 31.9995 37.9253 31.9995Z" fill="#8B0CFF"/>
</svg>
